<?xml version="1.0" encoding="UTF-8"?>
<svg width="243.06pt" height="173.01pt" version="1.2" viewBox="0 0 243.06 173.01" xmlns="http://www.w3.org/2000/svg" xmlns:xlink="http://www.w3.org/1999/xlink">
 <defs>
  <symbol id="e" overflow="visible"/>
  <filter id="alpha" x="0" y="0" width="1" height="1">
   <feColorMatrix in="SourceGraphic" values="0 0 0 0 1 0 0 0 0 1 0 0 0 0 1 0 0 0 1 0"/>
  </filter>
  <mask id="d">
   <g filter="url(#alpha)">
    <rect width="500" height="500" fill-opacity=".22"/>
   </g>
  </mask>
  <clipPath id="k">
   <path d="m0.14062 0.57812h362.98v217.8h-362.98z"/>
  </clipPath>
  <clipPath id="l">
   <rect width="364" height="219"/>
  </clipPath>
  <g id="b" clip-path="url(#l)">
   <g clip-path="url(#k)">
    <path d="m200.77 19.855c-39.141 12.496-163.11-49.121-153.41 35.043 1.5156 12.516 9.5781 30.191 2.7695 41.875-4.9336 8.75-13.973 13.879-22.707 17.281-22.816 9.2734-31.309 26.68-25.531 51.523 15.453 66.945 99.578 51.07 143.74 31.223 31.41-14.773 68.453-17.312 100.98-4.8164 25.477 10.176 41.359 31.523 71.266 25.27 26.52-5.3242 30.523-30.359 22.777-53.668-4.3984-14.422-7.5586-20.516 1.168-34.434 7.3516-13.824 20.297-24.297 21.293-40.492 0.21875-17.543-7.8438-35.219-23.441-41.863-12.762-5.4336-24.332-3.2383-36.957-6.582-28.082-7.8906-46.129-51.523-80.969-36.52-8.6836 4.1016-13.574 13.551-23.039 16.301" fill="#82dcf0"/>
   </g>
  </g>
  <mask id="c">
   <g filter="url(#alpha)">
    <rect width="500" height="500" fill-opacity=".3"/>
   </g>
  </mask>
  <clipPath id="i">
   <path d="m178 0.65625h17v17.344h-17z"/>
  </clipPath>
  <clipPath id="h">
   <path d="m370 144h8.2344v9h-8.2344z"/>
  </clipPath>
  <clipPath id="g">
   <path d="m0.69922 212h11.301v12h-11.301z"/>
  </clipPath>
  <clipPath id="f">
   <path d="m19 224h7v6.2812h-7z"/>
  </clipPath>
  <clipPath id="j">
   <rect width="379" height="231"/>
  </clipPath>
  <g id="a" clip-path="url(#j)">
   <path d="m189.58 28.844c3.5469 0 3.5469-5.5 0-5.5-3.5508 0-3.5508 5.5 0 5.5" fill="#82dcf0"/>
   <path d="m26.645 113.41c7.0938 0 7.0938-11 0-11-7.0977 0-7.0977 11 0 11" fill="#82dcf0"/>
   <path d="m357.33 157.27c7.0938 0 7.0938-11 0-11-7.0977 0-7.0977 11 0 11" fill="#82dcf0"/>
   <path d="m171.02 26.094c7.0938 0 7.0938-11 0-11-7.0977 0-7.0977 11 0 11" fill="#82dcf0"/>
   <path d="m368.33 139.8c9.2188 0 9.2188-14.297 0-14.297-9.2227 0-9.2227 14.297 0 14.297" fill="#82dcf0"/>
   <path d="m8.082 131.55c9.2188 0 9.2188-14.297 0-14.297-9.2227 0-9.2227 14.297 0 14.297" fill="#82dcf0"/>
   <path d="m313.33 45.617c9.2188 0 9.2188-14.297 0-14.297-9.2227 0-9.2227 14.297 0 14.297" fill="#82dcf0"/>
   <g clip-path="url(#i)">
    <path d="m186.83 17.156c10.641 0 10.641-16.5 0-16.5s-10.641 16.5 0 16.5" fill="#82dcf0"/>
   </g>
   <g clip-path="url(#h)">
    <path d="m374.24 152.73c5.3203 0 5.3203-8.25 0-8.25s-5.3203 8.25 0 8.25" fill="#82dcf0"/>
   </g>
   <path d="m6.1562 108.59c5.3203 0 5.3203-8.25 0-8.25s-5.3203 8.25 0 8.25" fill="#82dcf0"/>
   <path d="m330.52 53.594c5.3164 0 5.3164-8.25 0-8.25-5.3203 0-5.3203 8.25 0 8.25" fill="#82dcf0"/>
   <path d="m329.14 38.469c3.5469 0 3.5469-5.5 0-5.5-3.5508 0-3.5508 5.5 0 5.5" fill="#82dcf0"/>
   <path d="m50.57 28.98c7.0938 0 7.0938-11 0-11-7.0977 0-7.0977 11 0 11" fill="#82dcf0"/>
   <path d="m363.52 218.59c7.0938 0 7.0938-11 0-11-7.0977 0-7.0977 11 0 11" fill="#82dcf0"/>
   <g clip-path="url(#g)">
    <path d="m6.0195 223.41c7.0938 0 7.0938-11 0-11s-7.0938 11 0 11" fill="#82dcf0"/>
   </g>
   <path d="m67.07 20.73c3.5469 0 3.5469-5.5 0-5.5-3.5508 0-3.5508 5.5 0 5.5" fill="#82dcf0"/>
   <path d="m364.21 196.59c3.5469 0 3.5469-5.5 0-5.5-3.5508 0-3.5508 5.5 0 5.5" fill="#82dcf0"/>
   <g clip-path="url(#f)">
    <path d="m22.52 230.28c3.5469 0 3.5469-5.5 0-5.5-3.5508 0-3.5508 5.5 0 5.5" fill="#82dcf0"/>
   </g>
  </g>
 </defs>
 <use transform="matrix(.62793 0 0 .62793 4.445 12.007)" width="100%" height="100%" mask="url(#d)" xlink:href="#b"/>
 <use transform="matrix(.62793 0 0 .62793 2.561 2.589)" width="100%" height="100%" mask="url(#c)" xlink:href="#a"/>
 <g transform="matrix(.62793 0 0 .62793 -38.254 -46.39)" fill="#191919">
  <path d="m166.03 215.68c-3.7031 1.3086-6.1523 1.5586-8.0469-2.1875-1.4648-2.8867-2.4375-5.8672-4.2773-8.5664-3.9883-5.8555-7.8516-6.2461-14.238-5.4141-6.3359 0.82812-14.984-0.79297-15.945-8.1211-0.6836-5.2226-0.72656-10.027-3.0117-14.914-1.1289-2.4062-4.6836-0.3125-3.5625 2.082 2.5391 5.4258 1.4297 11.328 3.2852 16.852 1.8828 5.6016 8.1562 7.4102 13.43 8.0391 3.9844 0.47656 7.4766-0.48438 11.383-0.48047 4.1953 4e-3 7.0586 7.2031 8.3906 10.359 2.7695 6.5898 6.6992 8.8008 13.691 6.3281 2.4883-0.87891 1.418-4.8633-1.0977-3.9766"/>
  <path d="m122.44 170.91c-1.2383 1.6172-2.7461 2.6289-4.543 3.5352-1.9024 0.95703-0.23047 3.8008 1.6641 2.8477 2.3359-1.1758 4.1367-2.6328 5.7266-4.7148 0.54688-0.71875 0.11328-1.8476-0.58984-2.2578-0.85156-0.49609-1.7148-0.12109-2.2578 0.58985"/>
  <path d="m116.53 166.52c8e-3 3.4883 0.51563 6.957 0.55078 10.449 0.0195 2.1289 3.3164 2.1289 3.2969 0-0.0312-3.4922-0.53907-6.9609-0.54688-10.449-8e-3 -2.1289-3.3086-2.1289-3.3008 0"/>
  <path d="m110.96 169.89c2.207 2.7578 4.4492 5.5117 7.4844 7.4062 1.8086 1.1289 3.4648-1.7266 1.6641-2.8477-2.7695-1.7305-4.8008-4.375-6.8164-6.8945-1.3281-1.6602-3.6484 0.69141-2.332 2.3359"/>
  <path d="m108.21 174.84c3.0703 2.9023 6.8984 3.8633 10.953 2.625 2.0312-0.6211 1.1641-3.8086-0.875-3.1836-2.9297 0.89453-5.5039 0.34375-7.7461-1.7734-1.543-1.4648-3.8828 0.86718-2.332 2.332"/>
  <path d="m334.74 225.92c0.14843-5.3906 1.9492-7.1875 7.1562-7.6133 3.3789-0.27344 6.8086-0.23047 10.152-0.85157 5.1055-0.94921 5.0078-7.9922 6.9844-11.621 3.0156-5.5508 11.117-4.9609 16.348-6.6016 5.7578-1.8047 7.9688-6.6836 8.3086-12.363 0.16015-2.6562-3.9648-2.6406-4.125 0-0.50391 8.4531-6.7031 8.7461-13.508 10.145-6 1.2344-10.062 4.5234-12.148 10.309-0.65235 1.8086-0.8125 5.582-2.9531 6.1562-3.4883 0.9336-7.5039 0.50781-11.094 0.89453-6.7422 0.73047-9.0664 5.1484-9.2461 11.547-0.0703 2.6641 4.0547 2.6562 4.125 0"/>
  <path d="m373.99 181.81c1.4102 3.3594 3.8398 5.793 7.2031 7.2031 0.83203 0.34765 1.8164-0.3711 2.0312-1.1562 0.26171-0.94922-0.32422-1.6797-1.1524-2.0274-2.1719-0.91015-3.9883-2.7305-4.8984-4.8984-0.34765-0.82813-1.0781-1.4141-2.0312-1.1524-0.78125 0.21485-1.5 1.1992-1.1523 2.0312"/>
  <path d="m378.88 177.52v8.25c0 2.1289 3.3008 2.1289 3.3008 0v-8.25c0-2.1289-3.3008-2.1289-3.3008 0"/>
  <path d="m384.44 178.18c-1 2.8867-2.7305 5.0547-5.0781 6.9726-1.6484 1.3477 0.69922 3.6641 2.3359 2.332 2.7969-2.2812 4.7383-5.0117 5.9219-8.4258 0.69922-2.0156-2.4883-2.875-3.1797-0.8789"/>
  <path d="m388.46 181.64c-1.4375 2.2773-3.7109 3.7344-6.1641 4.7422-1.9414 0.79687-1.0938 3.9883 0.875 3.1797 3.2891-1.3476 6.207-3.1953 8.1367-6.2578 1.1406-1.8047-1.7148-3.457-2.8477-1.6641"/>
 </g>
 <path d="m184.29 132.99c0 1.8126-13.565 2.34-15.031 2.34h-101.52c-1.4643 0-15.033-0.52737-15.033-2.34l12.38-18.556c0-1.8126 1.1896-3.2819 2.654-3.2819h101.52c1.4668 0 2.654 1.4692 2.654 3.2819z" fill="#b3b3b3" stroke-width=".62793"/>
 <g transform="matrix(.62793 0 0 .62793 -38.254 -46.39)" fill="#3a3a38">
  <path d="m216.38 279.1h-41.555l7.2734-17.602h37.582z"/>
  <path d="m282.88 279.1h41.551l-7.2734-17.602h-37.578z"/>
  <path d="m329.05 279.1h14.633l-11.973-17.602h-11.039z"/>
  <path d="m170.21 279.1h-14.633l11.973-17.602h11.035z"/>
  <path d="m279.22 279.1h-59.188l3.3008-17.602h52.586z"/>
 </g>
 <g transform="matrix(.62793 0 0 .62793 -38.254 -46.39)">
  <path d="m340.07 267.41h-180.88v-2.6914h180.88z" fill="#b3b3b3"/>
  <path d="m342.03 274.01h-184.8v-2.6953h184.8z" fill="#b3b3b3"/>
  <path d="m355.52 292.53c0 2.332-0.48437 4.2227-2.8164 4.2227h-206.14c-2.3359 0-2.8164-1.8906-2.8164-4.2227v-3.625c0-2.332 0.48047-4.2227 2.8164-4.2227h206.14c2.332 0 2.8164 1.8906 2.8164 4.2227z" fill="#3a3a38"/>
  <path d="m288.27 290.82c0 1.2148-0.98437 2.1992-2.1992 2.1992h-72.875c-1.2188 0-2.2031-0.98437-2.2031-2.1992 0-1.2148 0.98437-2.1992 2.2031-2.1992h72.875c1.2148 0 2.1992 0.98438 2.1992 2.1992" fill="#6e6e6e"/>
  <path d="m336.8 252.14c0 2.332-1.8906 4.2266-4.2266 4.2266h-165.9c-2.332 0-4.2266-1.8945-4.2266-4.2266v-108.23c0-2.332 1.8945-4.2227 4.2266-4.2227h165.9c2.3359 0 4.2266 1.8906 4.2266 4.2227z" fill="#3a3a38"/>
  <path d="m249.63 145.56c2.2695 0 2.2695-3.5195 0-3.5195-2.2734 0-2.2734 3.5195 0 3.5195" fill="#fff"/>
  <path d="m324.6 245.34c0 2.0078-1.6289 3.6328-3.6328 3.6328h-142.68c-2.0039 0-3.6328-1.625-3.6328-3.6328v-93.078c0-2.0039 1.6289-3.6328 3.6328-3.6328h142.68c2.0039 0 3.6328 1.6289 3.6328 3.6328z" fill="#fff"/>
 </g>
 <g transform="matrix(.62793 0 0 .62793 -38.254 -46.39)" fill="none" stroke="#305773" stroke-linecap="round" stroke-linejoin="round" stroke-miterlimit="10" stroke-width="3.3">
  <path d="m227.8 186.36-12.445 12.445"/>
  <path d="m227.8 198.8-12.445-12.445"/>
  <path d="m283.9 186.36-12.445 12.445"/>
  <path d="m283.9 198.8-12.441-12.445"/>
 </g>
 <path d="m136.51 87.874v7.7116c0 1.5257-1.2363 2.7644-2.7619 2.7644h-1.4913c-1.5257 0-2.7619-1.2387-2.7619-2.7644v-7.7116" fill="#f099b3" stroke-width=".62793"/>
 <path d="m134.21 88.274-1.2117 8.98-1.2117-8.98z" fill="#ee7fa1" stroke-width=".62793"/>
 <path d="m95.081 87.864h46.837" fill="none" stroke="#305773" stroke-linecap="round" stroke-linejoin="round" stroke-miterlimit="10" stroke-width="2.75"/>
 <g transform="matrix(.62793 0 0 .62793 -38.254 -46.39)">
  <path d="m200.13 211.98c7.0938 0 7.0938-11 0-11-7.0976 0-7.0976 11 0 11" fill="#f5c2d1"/>
  <path d="m299.13 211.98c7.0938 0 7.0938-11 0-11-7.0976 0-7.0976 11 0 11" fill="#f5c2d1"/>
  <path d="m308.48 125.27v36.301c0 3.5469 5.5 3.5469 5.5 0v-36.301c0-3.5469-5.5-3.5469-5.5 0" fill="#f08f00"/>
  <path d="m311.23 175.59c5.3203 0 5.3203-8.25 0-8.25s-5.3203 8.25 0 8.25" fill="#f08f00"/>
  <path d="m323.15 335.82c0 4.8594-3.9414 8.8008-8.8047 8.8008h-128.7c-4.8633 0-8.8047-3.9414-8.8047-8.8008v-17.602c0-4.8594 3.9414-8.8008 8.8047-8.8008h128.7c4.8633 0 8.8047 3.9414 8.8047 8.8008z" fill="#82dcf0"/>
 </g>
 <use transform="matrix(.62793 0 0 .62793 -38.254 -46.39)" x="228.923" y="342.07419" width="100%" height="100%" fill="#ffffff" xlink:href="#e"/>
 <g transform="translate(1.5)" fill="#fff" stroke-width=".75" aria-label="404">
  <path d="m107.83 160.16v-3.3281q0-0.36719 0.0312-0.78906 0-0.3125 0.0469-0.52344-0.15625 0.36719-0.33594 0.67188-0.0547 0.10156-0.44531 0.76562l-2.1016 3.2031zm0 4.7969v-2.5625h-5.2031v-2.2344l4.2578-6.5781h3.5547v6.5781h1.2656v2.25l-1.2656-0.0156v2.5625z" style="font-variant-caps:normal;font-variant-east-asian:normal;font-variant-ligatures:normal;font-variant-numeric:normal"/>
  <path d="m121.52 159.43q0 2.7109-1.1484 4.2734-1.1562 1.5547-3.1719 1.5547-2.0156 0-3.1641-1.5859-0.375-0.5-0.64844-1.1719-0.27343-0.67969-0.39843-1.4609t-0.125-1.7188q0-1.3906 0.28906-2.4766 0.29687-1.0859 0.88281-1.875 1.1562-1.5703 3.1641-1.5703 2.0391 0 3.1875 1.5703 1.1328 1.6172 1.1328 4.4609zm-5.7734-0.10937q0 1.9062 0.35156 2.7344 0.35156 0.86719 1.1016 0.86719 0.73438 0 1.0859-0.86719 0.35156-0.82812 0.35156-2.7344 0-1.8828-0.35156-2.7188-0.35156-0.88281-1.0859-0.88281-0.77343 0-1.1016 0.85156-0.35156 0.83594-0.35156 2.75z" style="font-variant-caps:normal;font-variant-east-asian:normal;font-variant-ligatures:normal;font-variant-numeric:normal"/>
  <path d="m127.83 160.16v-3.3281q0-0.36719 0.0312-0.78906 0-0.3125 0.0469-0.52344-0.15625 0.36719-0.33594 0.67188-0.0547 0.10156-0.44531 0.76562l-2.1016 3.2031zm0 4.7969v-2.5625h-5.2031v-2.2344l4.2578-6.5781h3.5547v6.5781h1.2656v2.25l-1.2656-0.0156v2.5625z" style="font-variant-caps:normal;font-variant-east-asian:normal;font-variant-ligatures:normal;font-variant-numeric:normal"/>
 </g>
</svg>
